<?xml version="1.0" encoding="UTF-8"?>
<svg width="60px" height="59px" viewBox="0 0 60 59" version="1.1" xmlns="http://www.w3.org/2000/svg" xmlns:xlink="http://www.w3.org/1999/xlink">
    <!-- Generator: Sketch 49.1 (51147) - http://www.bohemiancoding.com/sketch -->
    <title>github-black</title>
    <desc>Created with Sketch.</desc>
    <defs></defs>
    <g id="Welcome" stroke="none" stroke-width="1" fill="none" fill-rule="evenodd">
        <g id="Artboard-7" transform="translate(-36.000000, -76.000000)" fill="#111111">
            <g id="github-black" transform="translate(36.000000, 76.000000)">
                <path d="M29.9963151,0 C13.4327801,0 0,13.4309385 0,29.9999983 C0,43.2541412 8.59484298,54.4972345 20.5156526,58.4640851 C22.0165733,58.7403282 22.5635346,57.8139931 22.5635346,57.018413 C22.5635346,56.3075475 22.537752,54.4198864 22.523019,51.9171242 C14.1786364,53.7292787 12.4180472,47.8950249 12.4180472,47.8950249 C11.0534064,44.4290951 9.08655566,43.5064432 9.08655566,43.5064432 C6.36279891,41.6464065 9.29281716,41.6832389 9.29281716,41.6832389 C12.3038667,41.8950253 13.8876604,44.7753198 13.8876604,44.7753198 C16.563535,49.3591132 20.9097594,48.0349881 22.6187833,47.2670323 C22.8913431,45.3296475 23.6666653,44.007364 24.5230189,43.2578245 C17.8618774,42.5009184 10.8581946,39.9263329 10.8581946,28.4309376 C10.8581946,25.1565363 12.0276236,22.4769785 13.9465922,20.3812143 C13.6372,19.6224667 12.6077341,16.5709015 14.2412515,12.4419883 C14.2412515,12.4419883 16.7587468,11.6353585 22.4898698,15.5174945 C24.8821349,14.8508279 27.4493539,14.5193362 29.9999983,14.5064449 C32.5488011,14.5193362 35.1141785,14.8508279 37.5101268,15.5174945 C43.2375666,11.6353585 45.7513786,12.4419883 45.7513786,12.4419883 C47.3885793,16.5709015 46.3591134,19.6224667 46.0515628,20.3812143 C47.9742146,22.4769785 49.1344355,25.1565363 49.1344355,28.4309376 C49.1344355,39.9557989 42.119703,42.4917103 35.4383037,43.2338834 C36.5138101,44.1602185 37.4732944,45.9907893 37.4732944,48.7900525 C37.4732944,52.7992604 37.436462,56.0349876 37.436462,57.018413 C37.436462,57.8213595 37.9778984,58.7550612 39.499077,58.4622435 C51.4106785,54.4861848 59.998155,43.250458 59.998155,29.9999983 C59.998155,13.4309385 46.5653749,0 29.9963151,0" id="Fill-3-Copy-2"></path>
            </g>
        </g>
    </g>
</svg>