<?xml version="1.0" encoding="UTF-8"?>
<svg width="60px" height="60px" viewBox="0 0 60 60" version="1.1" xmlns="http://www.w3.org/2000/svg" xmlns:xlink="http://www.w3.org/1999/xlink">
    <!-- Generator: Sketch 49.1 (51147) - http://www.bohemiancoding.com/sketch -->
    <title>linkedin-black</title>
    <desc>Created with Sketch.</desc>
    <defs></defs>
    <g id="Welcome" stroke="none" stroke-width="1" fill="none" fill-rule="evenodd">
        <g id="Artboard-7" transform="translate(-189.000000, -72.000000)" fill="#111111">
            <g id="linkedin-black" transform="translate(189.000000, 72.000000)">
                <path d="M30,60 C13.4314575,60 0,46.5685425 0,30 C0,13.4314575 13.4314575,0 30,0 C46.5685425,0 60,13.4314575 60,30 C60,46.5685425 46.5685425,60 30,60 Z M42.787316,40.2947612 L42.787316,31.3604053 C42.787316,26.9728798 41.8400201,23.5999756 36.7128643,23.5999756 C34.2502744,23.5999756 32.5984332,24.9502752 31.9232834,26.231353 L31.8531133,26.231353 L31.8531133,24.0039276 L27,24.0039276 L27,40.2947612 L32.0569858,40.2947612 L32.0569858,32.2375311 C32.0569858,30.1115678 32.4590413,28.0529299 35.0942116,28.0529299 C37.6924004,28.0529299 37.7246407,30.4832795 37.7246407,32.3721817 L37.7246407,40.2947612 L42.787316,40.2947612 Z M21.4376602,21.8724757 C23.0572611,21.8724757 24.3715275,20.5572611 24.3715275,18.9357637 C24.3715275,17.3152146 23.0572611,16 21.4376602,16 C19.8114216,16 18.5,17.3152146 18.5,18.9357637 C18.5,20.5572611 19.8114216,21.8724757 21.4376602,21.8724757 Z M19,24 L19,40.2908336 L24.0683647,40.2908336 L24.0683647,24 L19,24 Z" id="Path"></path>
            </g>
        </g>
    </g>
</svg>