<?xml version="1.0" encoding="UTF-8"?>
<svg width="60px" height="60px" viewBox="0 0 60 60" version="1.1" xmlns="http://www.w3.org/2000/svg" xmlns:xlink="http://www.w3.org/1999/xlink">
    <!-- Generator: Sketch 49.1 (51147) - http://www.bohemiancoding.com/sketch -->
    <title>twitter-black</title>
    <desc>Created with Sketch.</desc>
    <defs></defs>
    <g id="Welcome" stroke="none" stroke-width="1" fill="none" fill-rule="evenodd">
        <g id="Artboard-7" transform="translate(-332.000000, -72.000000)" fill="#111111">
            <g id="twitter-black" transform="translate(332.000000, 72.000000)">
                <path d="M30,60 C13.4314575,60 0,46.5685425 0,30 C0,13.4314575 13.4314575,0 30,0 C46.5685425,0 60,13.4314575 60,30 C60,46.5685425 46.5685425,60 30,60 Z M47,21.8860968 C45.8961923,22.3756173 44.7099748,22.7064633 43.4649402,22.8552617 C44.7357621,22.0934928 45.7116208,20.8873039 46.171184,19.4501262 C44.9820037,20.1553824 43.6647646,20.6676177 42.2628114,20.9437068 C41.1400198,19.7475036 39.5404367,19 37.7702184,19 C34.3710084,19 31.6151651,21.7557336 31.6151651,25.154724 C31.6151651,25.6371118 31.6697026,26.1068803 31.7746077,26.5573357 C26.659278,26.3006694 22.1241084,23.8503237 19.0884451,20.1266323 C18.5586525,21.0356633 18.25513,22.0929441 18.25513,23.2208932 C18.25513,25.3561944 19.3418194,27.2400966 20.9933063,28.3437946 C19.9843081,28.3118622 19.0353341,28.0350049 18.2054208,27.5740151 C18.2049819,27.5996927 18.2049819,27.6254801 18.2049819,27.6513772 C18.2049819,30.6334906 20.3265664,33.1211456 23.1422144,33.6864918 C22.6256996,33.82717 22.0819708,33.9023373 21.520575,33.9023373 C21.1239987,33.9023373 20.7383957,33.8638209 20.3626687,33.7919456 C21.1458356,36.2372435 23.4188522,38.0166795 26.1121475,38.0663887 C24.0057061,39.7171074 21.3518051,40.7010864 18.4682322,40.7010864 C17.9714693,40.7010864 17.4815099,40.672007 17,40.6151651 C19.7238012,42.3614616 22.9590695,43.3803358 26.4348733,43.3803358 C37.7558433,43.3803358 43.9465599,34.0017557 43.9465599,25.8684297 C43.9465599,25.6015582 43.9406343,25.3361132 43.9287831,25.0722045 C45.1312411,24.2044332 46.1748052,23.1203775 47,21.8860968 Z" id="Oval-1"></path>
            </g>
        </g>
    </g>
</svg>